<svg width="194" height="38" viewBox="0 0 194 38" fill="none" xmlns="http://www.w3.org/2000/svg">
<path d="M26.9104 17.6381C28.2162 16.713 29.0232 15.2328 29.0232 13.6823C29.0232 10.2409 26.3745 8 22.2908 8H18.1425V17.6381H26.9104Z" fill="#61A47A"/>
<path d="M17.4012 8H12V17.6381H17.4012V8Z" fill="#CF5A5B"/>
<path d="M17.4013 18.3711H12.0001V29.9997H17.4013V18.3711Z" fill="#838485"/>
<path d="M27.1794 18.3711H18.1425V29.9997H22.3755C27.1815 29.9997 30.3333 27.3544 30.3333 23.2928C30.3333 21.2217 29.1164 19.3642 27.1804 18.3711H27.1794Z" fill="#3B659C"/>
<path d="M37.0382 27.5277V9.92773H44.5559C45.5952 9.92773 46.5045 10.1121 47.2839 10.4809C48.0634 10.8496 48.6668 11.3651 49.0942 12.0272C49.5216 12.6893 49.7353 13.4729 49.7353 14.378C49.7353 14.8976 49.6264 15.4005 49.4085 15.8866C49.1906 16.3727 48.9014 16.7959 48.5411 17.1563C48.1807 17.5167 47.7658 17.7891 47.2965 17.9734C47.9502 18.1578 48.5285 18.4595 49.0314 18.8786C49.5342 19.2976 49.9365 19.8005 50.2382 20.3872C50.5399 20.9738 50.6908 21.6108 50.6908 22.298C50.6908 23.3373 50.4352 24.2508 49.9239 25.0386C49.4127 25.8264 48.7003 26.4382 47.7868 26.874C46.8733 27.3098 45.8214 27.5277 44.6314 27.5277H37.0382ZM40.8096 16.7917H43.9776C44.4134 16.7917 44.7906 16.7121 45.1091 16.5529C45.4275 16.3936 45.679 16.1757 45.8634 15.8992C46.0477 15.6226 46.1399 15.2999 46.1399 14.9312C46.1399 14.5624 46.0477 14.2649 45.8634 13.9883C45.679 13.7117 45.4275 13.498 45.1091 13.3472C44.7906 13.1963 44.4134 13.1209 43.9776 13.1209H40.8096V16.7917ZM40.8096 24.3346H44.2794C44.7822 24.3346 45.2348 24.2382 45.6371 24.0454C46.0394 23.8527 46.3536 23.5803 46.5799 23.2283C46.8062 22.8763 46.9193 22.4824 46.9193 22.0466C46.9193 21.5773 46.8062 21.175 46.5799 20.8397C46.3536 20.5045 46.0394 20.2405 45.6371 20.0477C45.2348 19.855 44.7822 19.7586 44.2794 19.7586H40.8096V24.3346Z" fill="#CF5A5B"/>
<path d="M58.8875 27.7288C57.6471 27.7288 56.5199 27.5109 55.5058 27.0751C54.4917 26.6393 53.6326 26.0149 52.9286 25.202C52.2246 24.389 51.7385 23.4043 51.4703 22.2477L54.8646 21.242C55.1161 22.2812 55.6063 23.09 56.3355 23.6683C57.0646 24.2466 57.9153 24.5357 58.8875 24.5357C59.3736 24.5357 59.8178 24.4645 60.2201 24.322C60.6223 24.1795 60.9408 23.9532 61.1755 23.6431C61.4101 23.333 61.5275 22.9517 61.5275 22.4991C61.5275 22.0466 61.3599 21.6485 61.0246 21.3551C60.6894 21.0618 60.2494 20.8229 59.7046 20.6386C59.1599 20.4542 58.5648 20.274 57.9195 20.098C57.2741 19.922 56.6204 19.7167 55.9583 19.482C55.2962 19.2473 54.6928 18.9372 54.1481 18.5517C53.6033 18.1662 53.1633 17.6717 52.8281 17.0683C52.4928 16.4648 52.3252 15.7106 52.3252 14.8054C52.3252 13.7662 52.606 12.8694 53.1675 12.1151C53.729 11.3608 54.4749 10.7742 55.4052 10.3551C56.3355 9.93609 57.3621 9.72656 58.4852 9.72656C59.6082 9.72656 60.6056 9.91094 61.5275 10.2797C62.4494 10.6485 63.233 11.1723 63.8783 11.8511C64.5237 12.53 64.9637 13.3136 65.1983 14.202L61.9046 15.5094C61.6532 14.6881 61.23 14.0511 60.6349 13.5986C60.0399 13.146 59.3233 12.9197 58.4852 12.9197C57.9991 12.9197 57.5759 12.9868 57.2155 13.1208C56.8551 13.2549 56.5785 13.4477 56.3858 13.6991C56.193 13.9506 56.0966 14.2523 56.0966 14.6043C56.0966 15.0401 56.2642 15.3795 56.5995 15.6226C56.9347 15.8656 57.3747 16.0668 57.9195 16.226C58.4642 16.3852 59.0593 16.5445 59.7046 16.7037C60.35 16.8629 60.9995 17.0641 61.6532 17.3071C62.3069 17.5502 62.9103 17.8728 63.4635 18.2751C64.0166 18.6774 64.4608 19.197 64.7961 19.834C65.1313 20.4709 65.2989 21.2755 65.2989 22.2477C65.2989 23.4043 65.014 24.3932 64.4441 25.2146C63.8741 26.0359 63.1073 26.6603 62.1435 27.0877C61.1797 27.5151 60.0943 27.7288 58.8875 27.7288Z" fill="#61A47A"/>
<path d="M67.2853 27.5277V9.92773H74.5767C75.7668 9.92773 76.8018 10.1498 77.6818 10.594C78.5618 11.0382 79.2449 11.671 79.731 12.4923C80.2171 13.3136 80.4601 14.2691 80.4601 15.3586C80.4601 16.4481 80.2171 17.4035 79.731 18.2249C79.2449 19.0462 78.5618 19.6832 77.6818 20.1357C76.8018 20.5883 75.7668 20.8146 74.5767 20.8146H71.0316V27.5277H67.2853ZM71.0316 17.6214H74.1493C74.6857 17.6214 75.1466 17.5293 75.5321 17.3449C75.9177 17.1605 76.2152 16.8965 76.4247 16.5529C76.6342 16.2093 76.739 15.8112 76.739 15.3586C76.739 14.6714 76.5085 14.1266 76.0476 13.7243C75.5866 13.322 74.9539 13.1209 74.1493 13.1209H71.0316V17.6214Z" fill="#838485"/>
<path d="M81.9938 27.5277V9.92773H89.5115C90.5507 9.92773 91.4601 10.1121 92.2395 10.4809C93.0189 10.8496 93.6223 11.3651 94.0498 12.0272C94.4772 12.6893 94.6909 13.4729 94.6909 14.378C94.6909 14.8976 94.582 15.4005 94.3641 15.8866C94.1462 16.3727 93.857 16.7959 93.4966 17.1563C93.1363 17.5167 92.7214 17.7891 92.2521 17.9734C92.9058 18.1578 93.4841 18.4595 93.9869 18.8786C94.4898 19.2976 94.8921 19.8005 95.1938 20.3872C95.4955 20.9738 95.6463 21.6108 95.6463 22.298C95.6463 23.3373 95.3907 24.2508 94.8795 25.0386C94.3682 25.8264 93.6559 26.4382 92.7423 26.874C91.8288 27.3098 90.777 27.5277 89.5869 27.5277H81.9938ZM85.7652 16.7917H88.9332C89.369 16.7917 89.7462 16.7121 90.0646 16.5529C90.3831 16.3936 90.6345 16.1757 90.8189 15.8992C91.0033 15.6226 91.0955 15.2999 91.0955 14.9312C91.0955 14.5624 91.0033 14.2649 90.8189 13.9883C90.6345 13.7117 90.3831 13.498 90.0646 13.3472C89.7462 13.1963 89.369 13.1209 88.9332 13.1209H85.7652V16.7917ZM85.7652 24.3346H89.2349C89.7378 24.3346 90.1903 24.2382 90.5926 24.0454C90.9949 23.8527 91.3092 23.5803 91.5355 23.2283C91.7618 22.8763 91.8749 22.4824 91.8749 22.0466C91.8749 21.5773 91.7618 21.175 91.5355 20.8397C91.3092 20.5045 90.9949 20.2405 90.5926 20.0477C90.1903 19.855 89.7378 19.7586 89.2349 19.7586H85.7652V24.3346Z" fill="black"/>
<path d="M97.1047 27.5277V9.72656H100.625V27.5277H97.1047ZM97.1047 12.5677V9.72656H100.625V12.5677H97.1047ZM97.1047 27.5277V24.6866H100.625V27.5277H97.1047Z" fill="black"/>
<path d="M107.439 27.7286C106.517 27.7286 105.699 27.54 104.987 27.1629C104.275 26.7858 103.717 26.2536 103.315 25.5663C102.913 24.8791 102.712 24.0578 102.712 23.1023V14.8555H106.207V22.1972C106.207 22.6833 106.303 23.1191 106.496 23.5046C106.688 23.8901 106.957 24.1793 107.3 24.372C107.644 24.5648 108.042 24.6612 108.495 24.6612C109.115 24.6612 109.643 24.4936 110.079 24.1583C110.514 23.8231 110.85 23.3328 111.084 22.6875C111.319 22.0421 111.436 21.2669 111.436 20.3618V14.8555H114.931V27.5275H111.436V26.0189C111.218 26.3038 110.921 26.5804 110.544 26.8486C110.167 27.1168 109.714 27.3305 109.186 27.4898C108.658 27.649 108.075 27.7286 107.439 27.7286Z" fill="black"/>
<path d="M123.102 27.7286C121.812 27.7286 120.672 27.4478 119.683 26.8863C118.694 26.3248 117.927 25.5495 117.382 24.5606C116.838 23.5716 116.565 22.4402 116.565 21.1663C116.565 20.2109 116.72 19.3392 117.03 18.5514C117.341 17.7636 117.781 17.0764 118.35 16.4897C118.92 15.9031 119.595 15.4505 120.374 15.132C121.154 14.8135 122.013 14.6543 122.952 14.6543C124.008 14.6543 124.95 14.8387 125.78 15.2074C126.61 15.5762 127.301 16.1 127.854 16.7789C128.408 17.4577 128.797 18.2372 129.024 19.1172C129.25 19.9972 129.296 20.9484 129.162 21.9709H119.155V19.4566H125.541C125.525 19.0208 125.407 18.6394 125.189 18.3126C124.971 17.9857 124.674 17.7343 124.297 17.5583C123.92 17.3823 123.471 17.2943 122.952 17.2943C122.499 17.2943 122.08 17.3781 121.694 17.5457C121.309 17.7133 120.99 17.9606 120.739 18.2874C120.488 18.6143 120.295 19.0124 120.161 19.4817C120.027 19.9511 119.96 20.4874 119.96 21.0909C119.96 21.8619 120.085 22.5282 120.337 23.0897C120.588 23.6512 120.953 24.0829 121.43 24.3846C121.908 24.6863 122.466 24.8372 123.102 24.8372C123.538 24.8372 123.945 24.7617 124.322 24.6109C124.699 24.46 125.017 24.2547 125.277 23.9949C125.537 23.7351 125.717 23.4375 125.818 23.1023L129.061 23.9823C128.843 24.7366 128.454 25.3945 127.892 25.956C127.331 26.5175 126.639 26.9533 125.818 27.2634C124.997 27.5735 124.091 27.7286 123.102 27.7286Z" fill="black"/>
<path d="M130.871 32.1034V14.8554H134.341V16.2634C134.593 15.945 134.911 15.6642 135.297 15.4212C135.682 15.1781 136.118 14.9895 136.604 14.8554C137.09 14.7213 137.601 14.6543 138.138 14.6543C139.395 14.6543 140.476 14.9225 141.381 15.4589C142.286 15.9952 142.99 16.7537 143.493 17.7343C143.996 18.7149 144.247 19.8672 144.247 21.1914C144.247 22.1804 144.109 23.0772 143.833 23.8817C143.556 24.6863 143.145 25.3735 142.601 25.9434C142.056 26.5133 141.411 26.9533 140.665 27.2634C139.919 27.5735 139.076 27.7286 138.138 27.7286C137.618 27.7286 137.111 27.6573 136.617 27.5149C136.122 27.3724 135.682 27.1796 135.297 26.9366C134.911 26.6935 134.593 26.4128 134.341 26.0943V32.1034H130.871ZM137.534 24.7366C138.171 24.7366 138.724 24.5899 139.194 24.2966C139.663 24.0032 140.036 23.5884 140.313 23.052C140.589 22.5156 140.727 21.8871 140.727 21.1663C140.727 20.4455 140.589 19.8421 140.313 19.3057C140.036 18.7693 139.663 18.3503 139.194 18.0486C138.724 17.7469 138.171 17.596 137.534 17.596C137.065 17.596 136.638 17.6798 136.252 17.8474C135.867 18.0151 135.531 18.2581 135.246 18.5766C134.961 18.8951 134.739 19.2764 134.58 19.7206C134.421 20.1648 134.341 20.6467 134.341 21.1663C134.341 21.8871 134.479 22.5156 134.756 23.052C135.033 23.5884 135.41 24.0032 135.887 24.2966C136.365 24.5899 136.914 24.7366 137.534 24.7366Z" fill="black"/>
<path d="M145.907 27.5274V14.8554H149.377V16.3892C149.611 16.0372 149.909 15.7271 150.269 15.4589C150.63 15.1907 151.045 14.9895 151.514 14.8554C151.983 14.7213 152.478 14.6543 152.997 14.6543C153.282 14.6543 153.567 14.6752 153.852 14.7172C154.137 14.7591 154.389 14.8219 154.607 14.9057L154.355 18.1994C154.104 18.0989 153.84 18.0276 153.563 17.9857C153.287 17.9438 153.014 17.9229 152.746 17.9229C152.31 17.9229 151.891 18.0151 151.489 18.1994C151.087 18.3838 150.726 18.6646 150.408 19.0417C150.089 19.4189 149.838 19.9217 149.653 20.5503C149.469 21.1789 149.377 21.929 149.377 22.8006V27.5274H145.907Z" fill="black"/>
<path d="M157.397 13.3221C156.777 13.3221 156.257 13.121 155.838 12.7187C155.419 12.3164 155.21 11.8052 155.21 11.185C155.21 10.7659 155.306 10.4014 155.499 10.0913C155.692 9.78118 155.952 9.52976 156.278 9.33699C156.605 9.14423 156.978 9.04785 157.397 9.04785C158.034 9.04785 158.562 9.25318 158.981 9.66385C159.4 10.0745 159.61 10.5816 159.61 11.185C159.61 11.5873 159.513 11.9519 159.321 12.2787C159.128 12.6056 158.868 12.8612 158.541 13.0456C158.214 13.2299 157.833 13.3221 157.397 13.3221ZM155.637 27.5278V14.8559H159.157V27.5278H155.637ZM155.637 17.697V14.8559H159.157V17.697H155.637ZM155.637 27.5278V24.6867H159.157V27.5278H155.637Z" fill="black"/>
<path d="M161.394 27.5274V14.8554H164.864V16.364C165.081 16.0791 165.379 15.8025 165.756 15.5343C166.133 15.2661 166.59 15.0524 167.126 14.8932C167.663 14.7339 168.249 14.6543 168.886 14.6543C169.808 14.6543 170.621 14.8471 171.325 15.2326C172.029 15.6181 172.582 16.1587 172.985 16.8543C173.387 17.5499 173.588 18.409 173.588 19.4314V27.5274H170.093V20.1606C170.093 19.6577 169.997 19.2219 169.804 18.8532C169.611 18.4844 169.347 18.2036 169.012 18.0109C168.677 17.8181 168.283 17.7217 167.83 17.7217C167.21 17.7217 166.682 17.8852 166.246 18.212C165.811 18.5389 165.471 19.0208 165.228 19.6577C164.985 20.2947 164.864 21.0741 164.864 21.996V27.5274H161.394Z" fill="black"/>
<path d="M174.494 17.6969V14.8558H182.942V17.6969H174.494ZM181.182 27.7289C180.311 27.7289 179.519 27.5529 178.806 27.2009C178.094 26.8489 177.532 26.3335 177.122 25.6546C176.711 24.9758 176.506 24.1502 176.506 23.178V11.8135H180.001V22.8512C180.001 23.4546 180.152 23.9156 180.453 24.234C180.755 24.5525 181.166 24.7118 181.685 24.7118C181.886 24.7118 182.092 24.6866 182.301 24.6363C182.511 24.586 182.724 24.5274 182.942 24.4603L183.194 27.402C182.909 27.5026 182.59 27.5822 182.238 27.6409C181.886 27.6996 181.534 27.7289 181.182 27.7289Z" fill="black"/>
</svg>
