<svg width="194" height="38" viewBox="0 0 194 38" fill="none" xmlns="http://www.w3.org/2000/svg">
<path d="M26.9105 17.6381C28.2163 16.713 29.0233 15.2328 29.0233 13.6823C29.0233 10.2409 26.3746 8 22.2909 8H18.1426V17.6381H26.9105Z" fill="#61A47A"/>
<path d="M17.4012 8H12V17.6381H17.4012V8Z" fill="#CF5A5B"/>
<path d="M17.4012 18.3711H12V29.9997H17.4012V18.3711Z" fill="#838485"/>
<path d="M27.1795 18.3711H18.1426V29.9997H22.3756C27.1816 29.9997 30.3334 27.3544 30.3334 23.2928C30.3334 21.2217 29.1165 19.3642 27.1806 18.3711H27.1795Z" fill="#3B659C"/>
<path d="M37.0371 27.5277V9.92773H44.5548C45.5941 9.92773 46.5034 10.1121 47.2828 10.4809C48.0623 10.8496 48.6657 11.3651 49.0931 12.0272C49.5205 12.6893 49.7343 13.4729 49.7343 14.378C49.7343 14.8976 49.6253 15.4005 49.4074 15.8866C49.1895 16.3727 48.9003 16.7959 48.54 17.1563C48.1796 17.5167 47.7647 17.7891 47.2954 17.9734C47.9491 18.1578 48.5274 18.4595 49.0303 18.8786C49.5331 19.2976 49.9354 19.8005 50.2371 20.3872C50.5388 20.9738 50.6897 21.6108 50.6897 22.298C50.6897 23.3373 50.4341 24.2508 49.9228 25.0386C49.4116 25.8264 48.6992 26.4382 47.7857 26.874C46.8722 27.3098 45.8203 27.5277 44.6303 27.5277H37.0371ZM40.8085 16.7917H43.9765C44.4123 16.7917 44.7895 16.7121 45.108 16.5529C45.4264 16.3936 45.6779 16.1757 45.8623 15.8992C46.0466 15.6226 46.1388 15.2999 46.1388 14.9312C46.1388 14.5624 46.0466 14.2649 45.8623 13.9883C45.6779 13.7117 45.4264 13.498 45.108 13.3472C44.7895 13.1963 44.4123 13.1209 43.9765 13.1209H40.8085V16.7917ZM40.8085 24.3346H44.2783C44.7811 24.3346 45.2337 24.2382 45.636 24.0454C46.0383 23.8527 46.3525 23.5803 46.5788 23.2283C46.8051 22.8763 46.9183 22.4824 46.9183 22.0466C46.9183 21.5773 46.8051 21.175 46.5788 20.8397C46.3525 20.5045 46.0383 20.2405 45.636 20.0477C45.2337 19.855 44.7811 19.7586 44.2783 19.7586H40.8085V24.3346Z" fill="#CF5A5B"/>
<path d="M58.8859 27.7288C57.6455 27.7288 56.5183 27.5109 55.5042 27.0751C54.4901 26.6393 53.631 26.0149 52.927 25.202C52.223 24.389 51.7369 23.4043 51.4688 22.2477L54.863 21.242C55.1145 22.2812 55.6048 23.09 56.3339 23.6683C57.063 24.2466 57.9137 24.5357 58.8859 24.5357C59.372 24.5357 59.8162 24.4645 60.2185 24.322C60.6208 24.1795 60.9392 23.9532 61.1739 23.6431C61.4086 23.333 61.5259 22.9517 61.5259 22.4991C61.5259 22.0466 61.3583 21.6485 61.023 21.3551C60.6878 21.0618 60.2478 20.8229 59.703 20.6386C59.1583 20.4542 58.5632 20.274 57.9179 20.098C57.2726 19.922 56.6188 19.7167 55.9568 19.482C55.2947 19.2473 54.6912 18.9372 54.1465 18.5517C53.6017 18.1662 53.1617 17.6717 52.8265 17.0683C52.4912 16.4648 52.3236 15.7106 52.3236 14.8054C52.3236 13.7662 52.6044 12.8694 53.1659 12.1151C53.7274 11.3608 54.4733 10.7742 55.4036 10.3551C56.3339 9.93609 57.3606 9.72656 58.4836 9.72656C59.6067 9.72656 60.604 9.91094 61.5259 10.2797C62.4478 10.6485 63.2314 11.1723 63.8767 11.8511C64.5221 12.53 64.9621 13.3136 65.1968 14.202L61.903 15.5094C61.6516 14.6881 61.2284 14.0511 60.6333 13.5986C60.0383 13.146 59.3217 12.9197 58.4836 12.9197C57.9975 12.9197 57.5743 12.9868 57.2139 13.1208C56.8535 13.2549 56.5769 13.4477 56.3842 13.6991C56.1914 13.9506 56.095 14.2523 56.095 14.6043C56.095 15.0401 56.2627 15.3795 56.5979 15.6226C56.9331 15.8656 57.3731 16.0668 57.9179 16.226C58.4627 16.3852 59.0577 16.5445 59.703 16.7037C60.3484 16.8629 60.9979 17.0641 61.6516 17.3071C62.3053 17.5502 62.9088 17.8728 63.4619 18.2751C64.015 18.6774 64.4592 19.197 64.7945 19.834C65.1297 20.4709 65.2973 21.2755 65.2973 22.2477C65.2973 23.4043 65.0124 24.3932 64.4425 25.2146C63.8726 26.0359 63.1057 26.6603 62.1419 27.0877C61.1781 27.5151 60.0928 27.7288 58.8859 27.7288Z" fill="#61A47A"/>
<path d="M67.2852 27.5277V9.92773H74.5766C75.7667 9.92773 76.8017 10.1498 77.6817 10.594C78.5617 11.0382 79.2448 11.671 79.7309 12.4923C80.217 13.3136 80.46 14.2691 80.46 15.3586C80.46 16.4481 80.217 17.4035 79.7309 18.2249C79.2448 19.0462 78.5617 19.6832 77.6817 20.1357C76.8017 20.5883 75.7667 20.8146 74.5766 20.8146H71.0314V27.5277H67.2852ZM71.0314 17.6214H74.1492C74.6855 17.6214 75.1465 17.5293 75.532 17.3449C75.9175 17.1605 76.2151 16.8965 76.4246 16.5529C76.6341 16.2093 76.7389 15.8112 76.7389 15.3586C76.7389 14.6714 76.5084 14.1266 76.0474 13.7243C75.5865 13.322 74.9537 13.1209 74.1492 13.1209H71.0314V17.6214Z" fill="#838485"/>
<path d="M81.9922 27.5277V9.92773H89.5099C90.5491 9.92773 91.4585 10.1121 92.2379 10.4809C93.0173 10.8496 93.6208 11.3651 94.0482 12.0272C94.4756 12.6893 94.6893 13.4729 94.6893 14.378C94.6893 14.8976 94.5804 15.4005 94.3625 15.8866C94.1446 16.3727 93.8554 16.7959 93.495 17.1563C93.1347 17.5167 92.7198 17.7891 92.2505 17.9734C92.9042 18.1578 93.4825 18.4595 93.9853 18.8786C94.4882 19.2976 94.8905 19.8005 95.1922 20.3872C95.4939 20.9738 95.6448 21.6108 95.6448 22.298C95.6448 23.3373 95.3891 24.2508 94.8779 25.0386C94.3667 25.8264 93.6543 26.4382 92.7408 26.874C91.8272 27.3098 90.7754 27.5277 89.5853 27.5277H81.9922ZM85.7636 16.7917H88.9316C89.3674 16.7917 89.7446 16.7121 90.063 16.5529C90.3815 16.3936 90.633 16.1757 90.8173 15.8992C91.0017 15.6226 91.0939 15.2999 91.0939 14.9312C91.0939 14.5624 91.0017 14.2649 90.8173 13.9883C90.633 13.7117 90.3815 13.498 90.063 13.3472C89.7446 13.1963 89.3674 13.1209 88.9316 13.1209H85.7636V16.7917ZM85.7636 24.3346H89.2333C89.7362 24.3346 90.1888 24.2382 90.591 24.0454C90.9933 23.8527 91.3076 23.5803 91.5339 23.2283C91.7602 22.8763 91.8733 22.4824 91.8733 22.0466C91.8733 21.5773 91.7602 21.175 91.5339 20.8397C91.3076 20.5045 90.9933 20.2405 90.591 20.0477C90.1888 19.855 89.7362 19.7586 89.2333 19.7586H85.7636V24.3346Z" fill="white"/>
<path d="M97.1035 27.5277V9.72656H100.624V27.5277H97.1035ZM97.1035 12.5677V9.72656H100.624V12.5677H97.1035ZM97.1035 27.5277V24.6866H100.624V27.5277H97.1035Z" fill="white"/>
<path d="M107.438 27.7286C106.516 27.7286 105.699 27.54 104.986 27.1629C104.274 26.7858 103.717 26.2536 103.314 25.5663C102.912 24.8791 102.711 24.0578 102.711 23.1023V14.8555H106.206V22.1972C106.206 22.6833 106.302 23.1191 106.495 23.5046C106.688 23.8901 106.956 24.1793 107.3 24.372C107.643 24.5648 108.041 24.6612 108.494 24.6612C109.114 24.6612 109.642 24.4936 110.078 24.1583C110.514 23.8231 110.849 23.3328 111.084 22.6875C111.318 22.0421 111.436 21.2669 111.436 20.3618V14.8555H114.93V27.5275H111.436V26.0189C111.218 26.3038 110.92 26.5804 110.543 26.8486C110.166 27.1168 109.713 27.3305 109.185 27.4898C108.657 27.649 108.075 27.7286 107.438 27.7286Z" fill="white"/>
<path d="M123.102 27.7286C121.811 27.7286 120.671 27.4478 119.682 26.8863C118.693 26.3248 117.926 25.5495 117.382 24.5606C116.837 23.5716 116.564 22.4402 116.564 21.1663C116.564 20.2109 116.72 19.3392 117.03 18.5514C117.34 17.7636 117.78 17.0764 118.35 16.4897C118.92 15.9031 119.594 15.4505 120.374 15.132C121.153 14.8135 122.012 14.6543 122.951 14.6543C124.007 14.6543 124.95 14.8387 125.779 15.2074C126.609 15.5762 127.3 16.1 127.854 16.7789C128.407 17.4577 128.796 18.2372 129.023 19.1172C129.249 19.9972 129.295 20.9484 129.161 21.9709H119.154V19.4566H125.54C125.524 19.0208 125.406 18.6394 125.188 18.3126C124.971 17.9857 124.673 17.7343 124.296 17.5583C123.919 17.3823 123.47 17.2943 122.951 17.2943C122.498 17.2943 122.079 17.3781 121.694 17.5457C121.308 17.7133 120.99 17.9606 120.738 18.2874C120.487 18.6143 120.294 19.0124 120.16 19.4817C120.026 19.9511 119.959 20.4874 119.959 21.0909C119.959 21.8619 120.084 22.5282 120.336 23.0897C120.587 23.6512 120.952 24.0829 121.43 24.3846C121.907 24.6863 122.465 24.8372 123.102 24.8372C123.537 24.8372 123.944 24.7617 124.321 24.6109C124.698 24.46 125.017 24.2547 125.276 23.9949C125.536 23.7351 125.716 23.4375 125.817 23.1023L129.06 23.9823C128.843 24.7366 128.453 25.3945 127.891 25.956C127.33 26.5175 126.638 26.9533 125.817 27.2634C124.996 27.5735 124.091 27.7286 123.102 27.7286Z" fill="white"/>
<path d="M130.869 32.1034V14.8554H134.339V16.2634C134.59 15.945 134.909 15.6642 135.294 15.4212C135.68 15.1781 136.116 14.9895 136.602 14.8554C137.088 14.7213 137.599 14.6543 138.135 14.6543C139.393 14.6543 140.474 14.9225 141.379 15.4589C142.284 15.9952 142.988 16.7537 143.491 17.7343C143.994 18.7149 144.245 19.8672 144.245 21.1914C144.245 22.1804 144.107 23.0772 143.83 23.8817C143.554 24.6863 143.143 25.3735 142.598 25.9434C142.054 26.5133 141.408 26.9533 140.662 27.2634C139.916 27.5735 139.074 27.7286 138.135 27.7286C137.616 27.7286 137.109 27.6573 136.614 27.5149C136.12 27.3724 135.68 27.1796 135.294 26.9366C134.909 26.6935 134.59 26.4128 134.339 26.0943V32.1034H130.869ZM137.532 24.7366C138.169 24.7366 138.722 24.5899 139.191 24.2966C139.661 24.0032 140.034 23.5884 140.31 23.052C140.587 22.5156 140.725 21.8871 140.725 21.1663C140.725 20.4455 140.587 19.8421 140.31 19.3057C140.034 18.7693 139.661 18.3503 139.191 18.0486C138.722 17.7469 138.169 17.596 137.532 17.596C137.063 17.596 136.635 17.6798 136.25 17.8474C135.864 18.0151 135.529 18.2581 135.244 18.5766C134.959 18.8951 134.737 19.2764 134.578 19.7206C134.418 20.1648 134.339 20.6467 134.339 21.1663C134.339 21.8871 134.477 22.5156 134.754 23.052C135.03 23.5884 135.407 24.0032 135.885 24.2966C136.363 24.5899 136.912 24.7366 137.532 24.7366Z" fill="white"/>
<path d="M145.906 27.5274V14.8554H149.376V16.3892C149.611 16.0372 149.908 15.7271 150.269 15.4589C150.629 15.1907 151.044 14.9895 151.513 14.8554C151.982 14.7213 152.477 14.6543 152.997 14.6543C153.281 14.6543 153.566 14.6752 153.851 14.7172C154.136 14.7591 154.388 14.8219 154.606 14.9057L154.354 18.1994C154.103 18.0989 153.839 18.0276 153.562 17.9857C153.286 17.9438 153.013 17.9229 152.745 17.9229C152.309 17.9229 151.89 18.0151 151.488 18.1994C151.086 18.3838 150.725 18.6646 150.407 19.0417C150.088 19.4189 149.837 19.9217 149.653 20.5503C149.468 21.1789 149.376 21.929 149.376 22.8006V27.5274H145.906Z" fill="white"/>
<path d="M157.396 13.3221C156.776 13.3221 156.257 13.121 155.838 12.7187C155.419 12.3164 155.209 11.8052 155.209 11.185C155.209 10.7659 155.305 10.4014 155.498 10.0913C155.691 9.78118 155.951 9.52976 156.278 9.33699C156.604 9.14423 156.977 9.04785 157.396 9.04785C158.033 9.04785 158.561 9.25318 158.98 9.66385C159.399 10.0745 159.609 10.5816 159.609 11.185C159.609 11.5873 159.513 11.9519 159.32 12.2787C159.127 12.6056 158.867 12.8612 158.54 13.0456C158.214 13.2299 157.832 13.3221 157.396 13.3221ZM155.636 27.5278V14.8559H159.156V27.5278H155.636ZM155.636 17.697V14.8559H159.156V17.697H155.636ZM155.636 27.5278V24.6867H159.156V27.5278H155.636Z" fill="white"/>
<path d="M161.393 27.5274V14.8554H164.862V16.364C165.08 16.0791 165.378 15.8025 165.755 15.5343C166.132 15.2661 166.589 15.0524 167.125 14.8932C167.662 14.7339 168.248 14.6543 168.885 14.6543C169.807 14.6543 170.62 14.8471 171.324 15.2326C172.028 15.6181 172.581 16.1587 172.983 16.8543C173.386 17.5499 173.587 18.409 173.587 19.4314V27.5274H170.092V20.1606C170.092 19.6577 169.996 19.2219 169.803 18.8532C169.61 18.4844 169.346 18.2036 169.011 18.0109C168.676 17.8181 168.282 17.7217 167.829 17.7217C167.209 17.7217 166.681 17.8852 166.245 18.212C165.809 18.5389 165.47 19.0208 165.227 19.6577C164.984 20.2947 164.862 21.0741 164.862 21.996V27.5274H161.393Z" fill="white"/>
<path d="M174.492 17.6969V14.8558H182.94V17.6969H174.492ZM181.18 27.7289C180.309 27.7289 179.517 27.5529 178.804 27.2009C178.092 26.8489 177.53 26.3335 177.12 25.6546C176.709 24.9758 176.504 24.1502 176.504 23.178V11.8135H179.998V22.8512C179.998 23.4546 180.149 23.9156 180.451 24.234C180.753 24.5525 181.163 24.7118 181.683 24.7118C181.884 24.7118 182.09 24.6866 182.299 24.6363C182.509 24.586 182.722 24.5274 182.94 24.4603L183.192 27.402C182.907 27.5026 182.588 27.5822 182.236 27.6409C181.884 27.6996 181.532 27.7289 181.18 27.7289Z" fill="white"/>
</svg>
