<?xml version="1.0" encoding="UTF-8"?>
<svg id="Layer_1" data-name="Layer 1" xmlns="http://www.w3.org/2000/svg" viewBox="0 0 1080 292.7">
  <defs>
    <style>
      .cls-1 {
        fill: #02b58a;
      }
    </style>
  </defs>
  <path class="cls-1" d="M223.34,31.49l-40.47,23.27L100.29,7.26,9.7,59.35v55.75l40.47,23.27v94.98l90.59,52.09,48.46-27.86v-46.56l82.6-47.48V59.37l-48.48-27.88ZM229.61,83.58v-33.81l29.41,16.92v33.81l-29.41-16.92ZM229.61,132.02v-33.81l29.41,16.92v33.81l-29.41-16.92ZM147.03,172.21v-33.81l69.86-40.19v33.81l-69.86,40.19ZM216.89,49.76v33.81l-27.76,15.96v-33.81l27.76-15.96ZM176.42,211.04v31.94l-29.28-16.92v-31.92l29.28,16.9ZM92.19,121.45v80.38l-29.28,16.9v-80.36l29.28-16.92ZM98.47,212.79l29.41,16.92-29.24,16.9-29.28-16.9,29.12-16.92ZM134.23,138.37v80.36l-29.41-16.9v-80.38l29.41,16.92ZM140.51,127.39l-69.88-40.17,29.41-16.92,69.86,40.19-29.39,16.9ZM64.27,76.24v-33.81l29.41-16.9v33.81l-29.41,16.9ZM85.67,110.49l-29.39,16.9-27.76-15.96,29.39-16.9,27.76,15.96ZM51.55,49.74v33.81l-29.28,16.92v-33.81l29.28-16.92ZM140.51,237.02l29.28,16.9-29.28,16.92-29.41-16.92,29.41-16.9ZM252.49,159.94l-69.88,40.19-29.28-16.92,69.86-40.17,29.3,16.9ZM176.25,65.76v33.81l-69.86-40.17V25.55l69.86,40.21Z"/>
  <g>
    <g>
      <path d="M385.48,135.31v-32.21l-33.96-62.24h26.19l19.2,39.01,19.2-39.01h26.19l-33.96,62.24v32.21h-22.87Z"/>
      <path d="M514.37,38.83c31.09,0,46.65,22.94,46.65,49.26s-15.56,49.26-46.65,49.26-46.65-22.94-46.65-49.26,15.62-49.26,46.65-49.26ZM514.37,61.77c-15.05,0-23.01,11.22-23.01,26.33s7.96,26.33,23.01,26.33,23.01-11.22,23.01-26.33-7.96-26.33-23.01-26.33Z"/>
      <path d="M603.09,135.3V40.8h36.66c17.66,0,35.7,6.88,35.7,31.87,0,15.65-7.09,24.16-16.65,28.42l24.01,34.29h-26.01l-20.72-30.79h-9.9v30.79l-23.08-.08ZM626.1,84.26h14.68c6.6,0,11.07-3.64,11.07-10.93s-4.47-10.93-11.07-10.93h-14.61l-.07,21.86Z"/>
      <path d="M721.79,135.31V40.81h22.99v35.77h10.95l19.78-35.77h25.5l-27.37,46.04,28.61,48.46h-25.5l-21.13-36.4h-10.84v36.45l-22.99-.06Z"/>
      <path d="M866.51,97.71c-1.22.1-2.43-.08-3.58-.53-1.15-.45-2.19-1.15-3.07-2.07-.87-.92-1.57-2.02-2.02-3.25-.45-1.22-.67-2.54-.62-3.86-.02-1.31.2-2.61.66-3.82.46-1.21,1.16-2.3,2.03-3.2.87-.9,1.92-1.59,3.05-2.03,1.14-.44,2.35-.61,3.55-.51,1.19-.1,2.4.07,3.52.51,1.13.44,2.16,1.13,3.03,2.03.87.9,1.54,1.99,1.99,3.2.44,1.21.65,2.5.6,3.8.07,1.31-.12,2.62-.56,3.85-.44,1.23-1.12,2.33-1.98,3.25-.87.92-1.9,1.63-3.04,2.08-1.14.45-2.36.63-3.56.53Z"/>
      <path d="M950.61,40.84v94.5h-10.47V40.84h10.47Z"/>
      <path d="M1069.59,40.84v10.8h-48.17v30.65h44.53v10.8h-44.53v31.45h48.88v10.8h-59.36V40.84h58.64Z"/>
    </g>
    <g>
      <path class="cls-1" d="M375.66,189.27v63.7h-13.13v-63.7h13.13ZM403.49,242.74v10.24h-32.07v-10.24h32.07Z"/>
      <path class="cls-1" d="M446.71,200.17l-17.33,52.81h-13.96l23.67-63.7h8.88l-1.27,10.89ZM460.32,229.26v10.28h-33.65v-10.28h33.65ZM461.1,252.98l-17.37-52.81-1.4-10.89h8.97l23.8,63.7h-14Z"/>
      <path class="cls-1" d="M524.41,189.27h13.08v42.09c0,4.9-1.04,9.03-3.13,12.38-2.09,3.35-4.96,5.88-8.62,7.57-3.66,1.69-7.87,2.54-12.62,2.54s-8.98-.85-12.67-2.54c-3.69-1.69-6.58-4.21-8.66-7.57-2.09-3.35-3.13-7.48-3.13-12.38v-42.09h13.13v42.09c0,2.86.45,5.19,1.36,7,.9,1.81,2.21,3.14,3.92,3.98,1.71.85,3.73,1.27,6.06,1.27s4.43-.42,6.1-1.27c1.68-.85,2.96-2.17,3.85-3.98.89-1.81,1.33-4.14,1.33-7v-42.09Z"/>
      <path class="cls-1" d="M609.1,189.27v63.7h-13.13l-25.6-42.7v42.7h-13.13v-63.7h13.13l25.64,42.75v-42.75h13.08Z"/>
      <path class="cls-1" d="M666.37,231.84h13.08c-.26,4.29-1.44,8.09-3.52,11.42-2.09,3.33-4.99,5.92-8.71,7.79-3.72,1.87-8.19,2.8-13.41,2.8-4.08,0-7.74-.71-10.98-2.12-3.24-1.41-6-3.45-8.29-6.1-2.29-2.65-4.03-5.86-5.23-9.63-1.2-3.76-1.79-7.98-1.79-12.64v-4.42c0-4.67.62-8.89,1.86-12.67,1.24-3.78,3.02-6.99,5.34-9.65,2.32-2.65,5.1-4.7,8.33-6.13,3.24-1.43,6.85-2.14,10.85-2.14,5.31,0,9.79.96,13.45,2.89,3.66,1.93,6.5,4.58,8.53,7.96,2.03,3.38,3.24,7.23,3.65,11.55h-13.08c-.18-2.57-.7-4.75-1.58-6.54s-2.2-3.15-3.96-4.07-4.11-1.38-7.02-1.38c-2.19,0-4.1.41-5.73,1.23s-3,2.06-4.11,3.72c-1.11,1.66-1.93,3.76-2.47,6.28-.54,2.52-.81,5.48-.81,8.86v4.51c0,3.3.25,6.19.74,8.69.5,2.49,1.26,4.59,2.3,6.3,1.04,1.71,2.38,2.99,4.03,3.85,1.65.86,3.64,1.29,5.97,1.29,2.74,0,5-.44,6.78-1.31s3.14-2.17,4.09-3.89c.95-1.72,1.51-3.86,1.68-6.43Z"/>
      <path class="cls-1" d="M710.16,189.27v63.7h-13.13v-63.7h13.13ZM739.51,215.22v10.24h-33.25v-10.24h33.25ZM748.88,189.27v63.7h-13.08v-63.7h13.08Z"/>
      <path class="cls-1" d="M825.3,230.27h-16.23v-10.24h16.23c2.51,0,4.55-.42,6.12-1.25,1.58-.83,2.73-1.99,3.46-3.48.73-1.49,1.09-3.16,1.09-5.03s-.37-3.66-1.09-5.29c-.73-1.63-1.88-2.95-3.46-3.94-1.58-.99-3.62-1.49-6.12-1.49h-11.68v53.42h-13.13v-63.7h24.81c4.99,0,9.27.9,12.84,2.69,3.57,1.79,6.31,4.27,8.2,7.42,1.9,3.15,2.84,6.75,2.84,10.81s-.95,7.67-2.84,10.68c-1.9,3-4.63,5.32-8.2,6.96-3.57,1.63-7.85,2.45-12.84,2.45Z"/>
      <path class="cls-1" d="M885.88,200.17l-17.33,52.81h-13.96l23.67-63.7h8.88l-1.27,10.89ZM899.49,229.26v10.28h-33.65v-10.28h33.65ZM900.28,252.98l-17.37-52.81-1.4-10.89h8.97l23.8,63.7h-14Z"/>
      <path class="cls-1" d="M942.27,189.27v63.7h-13.13v-63.7h13.13ZM948.7,252.98h-13.87l.09-10.24h13.78c3.44,0,6.34-.78,8.71-2.34,2.36-1.56,4.15-3.84,5.36-6.85,1.21-3,1.82-6.64,1.82-10.89v-3.11c0-3.27-.34-6.14-1.03-8.62-.69-2.48-1.7-4.56-3.04-6.26-1.34-1.69-2.99-2.97-4.94-3.83s-4.2-1.29-6.74-1.29h-14.26v-10.28h14.26c4.26,0,8.16.72,11.7,2.17,3.54,1.44,6.61,3.51,9.21,6.19,2.6,2.68,4.6,5.88,6.02,9.6,1.41,3.72,2.12,7.85,2.12,12.4v3.02c0,4.52-.71,8.65-2.12,12.38-1.42,3.73-3.41,6.93-5.99,9.6s-5.66,4.73-9.23,6.17c-3.57,1.44-7.52,2.17-11.84,2.17Z"/>
    </g>
  </g>
</svg>